<svg width="40" height="40" viewBox="0 0 40 40" fill="none" xmlns="http://www.w3.org/2000/svg">
<path d="M24.3911 10.262H24.3908C24.3908 7.79323 22.382 5.78473 19.9135 5.78473C17.4448 5.78473 15.4363 7.79323 15.4363 10.262V11.8181H24.3911V10.262V10.262Z" fill="#292626"/>
<path d="M27.5442 13.8929H26.4656V15.3477C26.7986 15.6382 27.014 16.0612 27.014 16.5384C27.014 17.4144 26.304 18.1246 25.4281 18.1246C24.5529 18.1246 23.8423 17.4144 23.8423 16.5384C23.8423 16.0614 24.0571 15.6385 24.3907 15.3481V13.8929H15.4359V15.3477C15.7692 15.6385 15.9843 16.0612 15.9843 16.5384C15.9843 17.4144 15.274 18.1246 14.3984 18.1246C13.5225 18.1246 12.8126 17.4144 12.8126 16.5384C12.8126 16.0614 13.0277 15.6382 13.361 15.3477V13.8929H12.2823C11.6726 13.8929 11.1768 14.3888 11.1768 14.9985V29.8207C11.1768 30.4304 11.6726 30.9263 12.2823 30.9263H27.5441C28.1534 30.9263 28.6497 30.43 28.6497 29.8207V14.9985C28.6498 14.3888 28.1535 13.8929 27.5442 13.8929Z" fill="#292626"/>
<path d="M19.9999 0C8.9546 0 0.000488281 8.95478 0.000488281 19.9997C0.000488281 31.0445 8.9546 40 19.9999 40C31.0452 40 40 31.0449 40 19.9997C40 8.95438 31.0452 0 19.9999 0ZM30.7249 29.8207C30.7249 31.5743 29.2977 33.0012 27.5444 33.0012H12.2828C10.5292 33.0012 9.10234 31.5744 9.10234 29.8207V14.9985C9.10234 13.245 10.5291 11.8181 12.2828 11.8181H13.3615V10.262C13.3615 6.64896 16.3009 3.7098 19.9136 3.7098C23.5264 3.7098 26.4658 6.64922 26.4658 10.262V11.8181H27.5444C29.2977 11.8181 30.7249 13.2448 30.7249 14.9985V29.8207V29.8207Z" fill="#292626"/>
</svg>
