<svg width="17" height="15" viewBox="0 0 17 15" fill="none" xmlns="http://www.w3.org/2000/svg">
<path d="M9.42121 0.688481C9.20763 0.915787 9.08765 1.22404 9.08765 1.54545C9.08765 1.86686 9.20763 2.17511 9.42121 2.40242L13.1716 6.39393L1.30867 6.40242C1.00653 6.40242 0.716759 6.53013 0.50311 6.75744C0.289461 6.98476 0.169434 7.29307 0.169434 7.61454C0.169434 7.93602 0.289461 8.24432 0.50311 8.47164C0.716759 8.69896 1.00653 8.82666 1.30867 8.82666L13.1727 8.81818L9.42121 12.8097C9.3124 12.9215 9.22561 13.0553 9.1659 13.2031C9.10619 13.351 9.07477 13.5101 9.07345 13.671C9.07214 13.832 9.10096 13.9916 9.15824 14.1405C9.21553 14.2895 9.30012 14.4248 9.40708 14.5387C9.51405 14.6525 9.64125 14.7425 9.78126 14.8034C9.92127 14.8644 10.0713 14.895 10.2225 14.8936C10.3738 14.8922 10.5233 14.8588 10.6623 14.7953C10.8013 14.7317 10.927 14.6394 11.0321 14.5236L15.1174 10.1782C15.4348 9.8405 15.6866 9.4396 15.8584 8.99838C16.0302 8.55716 16.1186 8.08425 16.1186 7.60666C16.1186 7.12908 16.0302 6.65617 15.8584 6.21494C15.6866 5.77372 15.4348 5.37282 15.1174 5.03515L11.0321 0.688481C10.8185 0.461243 10.5287 0.333588 10.2266 0.333588C9.92456 0.333588 9.63484 0.461243 9.42121 0.688481V0.688481Z" fill="white"/>
</svg>
