<svg width="40" height="40" viewBox="0 0 40 40" fill="none" xmlns="http://www.w3.org/2000/svg">
<path fill-rule="evenodd" clip-rule="evenodd" d="M0 20C0 8.95433 8.95433 0 20 0C31.0457 0 40 8.95433 40 20C40 31.0457 31.0457 40 20 40C8.95433 40 0 31.0457 0 20ZM20.001 9.33333C17.1041 9.33333 16.7405 9.346 15.6028 9.39775C14.4672 9.44975 13.6921 9.62958 13.0138 9.89333C12.3122 10.1657 11.7172 10.5302 11.1242 11.1233C10.5309 11.7162 10.1664 12.3113 9.89308 13.0127C9.62867 13.6912 9.44867 14.4665 9.39758 15.6016C9.34667 16.7394 9.33333 17.1032 9.33333 20.0001C9.33333 22.897 9.34625 23.2595 9.39775 24.3972C9.45 25.5328 9.62975 26.3079 9.89333 26.9862C10.166 27.6877 10.5304 28.2828 11.1236 28.8758C11.7162 29.4691 12.3113 29.8344 13.0125 30.1069C13.6912 30.3707 14.4665 30.5504 15.6018 30.6024C16.7397 30.6542 17.103 30.6669 19.9997 30.6669C22.8968 30.6669 23.2593 30.6542 24.3971 30.6024C25.5326 30.5504 26.3086 30.3707 26.9873 30.1069C27.6887 29.8344 28.2828 29.4691 28.8755 28.8758C29.4688 28.2828 29.8333 27.6878 30.1067 26.9864C30.3689 26.3079 30.5489 25.5326 30.6022 24.3975C30.6533 23.2597 30.6667 22.897 30.6667 20.0001C30.6667 17.1032 30.6533 16.7397 30.6022 15.6018C30.5489 14.4662 30.3689 13.6912 30.1067 13.0129C29.8333 12.3113 29.4688 11.7162 28.8755 11.1233C28.2822 10.53 27.6888 10.1656 26.9867 9.89333C26.3066 9.62958 25.5311 9.44975 24.3955 9.39775C23.2577 9.346 22.8955 9.33333 19.9977 9.33333H20.001Z" fill="#292626"/>
<path fill-rule="evenodd" clip-rule="evenodd" d="M19.0442 11.2556C19.3282 11.2552 19.6451 11.2556 20.0011 11.2556C22.8491 11.2556 23.1867 11.2658 24.3113 11.3169C25.3513 11.3645 25.9158 11.5383 26.2918 11.6843C26.7896 11.8776 27.1445 12.1087 27.5176 12.482C27.8909 12.8553 28.1221 13.2109 28.3158 13.7088C28.4618 14.0843 28.6358 14.6488 28.6832 15.6888C28.7343 16.8132 28.7454 17.151 28.7454 19.9977C28.7454 22.8443 28.7343 23.1822 28.6832 24.3066C28.6356 25.3466 28.4618 25.9111 28.3158 26.2866C28.1225 26.7844 27.8909 27.1388 27.5176 27.512C27.1443 27.8853 26.7898 28.1164 26.2918 28.3098C25.9163 28.4564 25.3513 28.6298 24.3113 28.6773C23.1869 28.7284 22.8491 28.7395 20.0011 28.7395C17.1528 28.7395 16.8153 28.7284 15.6908 28.6773C14.6508 28.6293 14.0863 28.4555 13.7102 28.3095C13.2123 28.1162 12.8568 27.8851 12.4834 27.5118C12.1101 27.1384 11.879 26.7838 11.6853 26.2858C11.5393 25.9102 11.3653 25.3458 11.3179 24.3058C11.2668 23.1813 11.2566 22.8435 11.2566 19.995C11.2566 17.1465 11.2668 16.8105 11.3179 15.6861C11.3654 14.6461 11.5393 14.0816 11.6853 13.7056C11.8786 13.2078 12.1101 12.8523 12.4834 12.4789C12.8568 12.1056 13.2123 11.8745 13.7102 11.6807C14.0862 11.534 14.6508 11.3607 15.6908 11.3129C16.6748 11.2685 17.0562 11.2552 19.0442 11.2529V11.2556ZM25.6949 13.0267C24.9883 13.0267 24.4149 13.5994 24.4149 14.3063C24.4149 15.0129 24.9883 15.5863 25.6949 15.5863C26.4016 15.5863 26.9749 15.0129 26.9749 14.3063C26.9749 13.5996 26.4016 13.0267 25.6949 13.0267ZM20.0011 14.5223C16.9759 14.5223 14.5233 16.975 14.5233 20.0001C14.5233 23.0253 16.9759 25.4768 20.0011 25.4768C23.0263 25.4768 25.478 23.0253 25.478 20.0001C25.478 16.975 23.0263 14.5223 20.0011 14.5223Z" fill="#292626"/>
<path fill-rule="evenodd" clip-rule="evenodd" d="M20.0009 16.4445C21.9645 16.4445 23.5565 18.0364 23.5565 20.0001C23.5565 21.9637 21.9645 23.5557 20.0009 23.5557C18.0371 23.5557 16.4453 21.9637 16.4453 20.0001C16.4453 18.0364 18.0371 16.4445 20.0009 16.4445Z" fill="#292626"/>
</svg>
